<?xml version="1.0" encoding="us-ascii" standalone="no"?><svg xmlns="http://www.w3.org/2000/svg" xmlns:xlink="http://www.w3.org/1999/xlink" contentStyleType="text/css" height="465.625px" preserveAspectRatio="none" style="width:737px;height:465px;" version="1.1" viewBox="0 0 737 465" width="737.5px" zoomAndPan="magnify"><defs><linearGradient id="g1d3rq85zozwsi0" x1="50%" x2="50%" y1="0%" y2="100%"><stop offset="0%" stop-color="#33B2E2"/><stop offset="100%" stop-color="#009FDB"/></linearGradient></defs><g><!--entity Proxmox Server--><g id="elem_Proxmox Server"><rect fill="url(#g1d3rq85zozwsi0)" height="62.4674" rx="4.1667" ry="4.1667" style="stroke:#33B2E2;stroke-width:1.0416666666666667;" width="158.3333" x="287.375" y="17.7083"/><rect fill="url(#g1d3rq85zozwsi0)" height="10.4167" style="stroke:#33B2E2;stroke-width:1.0416666666666667;" width="15.625" x="424.875" y="22.9167"/><rect fill="url(#g1d3rq85zozwsi0)" height="2.0833" style="stroke:#33B2E2;stroke-width:1.0416666666666667;" width="4.1667" x="422.7917" y="25"/><rect fill="url(#g1d3rq85zozwsi0)" height="2.0833" style="stroke:#33B2E2;stroke-width:1.0416666666666667;" width="4.1667" x="422.7917" y="29.1667"/><text fill="#FFFFFF" font-family="Verdana" font-size="12.5" lengthAdjust="spacing" textLength="100" x="311.3333" y="58.4778">Proxmox Server</text></g><!--entity VM: Linux Server--><g id="elem_VM: Linux Server"><rect fill="url(#g1d3rq85zozwsi0)" height="62.4674" rx="4.1667" ry="4.1667" style="stroke:#33B2E2;stroke-width:1.0416666666666667;" width="163.5417" x="284.7708" y="142.6667"/><rect fill="url(#g1d3rq85zozwsi0)" height="10.4167" style="stroke:#33B2E2;stroke-width:1.0416666666666667;" width="15.625" x="427.4792" y="147.875"/><rect fill="url(#g1d3rq85zozwsi0)" height="2.0833" style="stroke:#33B2E2;stroke-width:1.0416666666666667;" width="4.1667" x="425.3958" y="149.9583"/><rect fill="url(#g1d3rq85zozwsi0)" height="2.0833" style="stroke:#33B2E2;stroke-width:1.0416666666666667;" width="4.1667" x="425.3958" y="154.125"/><text fill="#FFFFFF" font-family="Verdana" font-size="12.5" lengthAdjust="spacing" textLength="105.2083" x="308.7292" y="183.4361">VM: Linux Server</text></g><!--entity Wazuh--><g id="elem_Wazuh"><rect fill="url(#g1d3rq85zozwsi0)" height="62.4674" rx="4.1667" ry="4.1667" style="stroke:#33B2E2;stroke-width:1.0416666666666667;" width="100" x="316.5417" y="267.6354"/><rect fill="url(#g1d3rq85zozwsi0)" height="10.4167" style="stroke:#33B2E2;stroke-width:1.0416666666666667;" width="15.625" x="395.7083" y="272.8438"/><rect fill="url(#g1d3rq85zozwsi0)" height="2.0833" style="stroke:#33B2E2;stroke-width:1.0416666666666667;" width="4.1667" x="393.625" y="274.9271"/><rect fill="url(#g1d3rq85zozwsi0)" height="2.0833" style="stroke:#33B2E2;stroke-width:1.0416666666666667;" width="4.1667" x="393.625" y="279.0938"/><text fill="#FFFFFF" font-family="Verdana" font-size="12.5" lengthAdjust="spacing" textLength="41.6667" x="340.5" y="308.4049">Wazuh</text></g><g id="elem_Endpoint 1"><ellipse cx="90.5023" cy="423.8449" fill="url(#g1d3rq85zozwsi0)" rx="73.8357" ry="25.1991" style="stroke:#33B2E2;stroke-width:2.0833333333333335;"/><text fill="#FFFFFF" font-family="Verdana" font-size="12.5" lengthAdjust="spacing" textLength="70.8333" x="55.0857" y="426.089">Endpoint 1</text></g><g id="elem_Endpoint 2"><ellipse cx="274.8773" cy="423.8449" fill="url(#g1d3rq85zozwsi0)" rx="73.8357" ry="25.1991" style="stroke:#33B2E2;stroke-width:2.0833333333333335;"/><text fill="#FFFFFF" font-family="Verdana" font-size="12.5" lengthAdjust="spacing" textLength="70.8333" x="239.4607" y="426.089">Endpoint 2</text></g><g id="elem_Endpoint 3"><ellipse cx="459.2523" cy="423.8449" fill="url(#g1d3rq85zozwsi0)" rx="73.8357" ry="25.1991" style="stroke:#33B2E2;stroke-width:2.0833333333333335;"/><text fill="#FFFFFF" font-family="Verdana" font-size="12.5" lengthAdjust="spacing" textLength="70.8333" x="423.8357" y="426.089">Endpoint 3</text></g><!--entity VM: Plex Server--><g id="elem_VM: Plex Server"><rect fill="url(#g1d3rq85zozwsi0)" height="62.4674" rx="4.1667" ry="4.1667" style="stroke:#33B2E2;stroke-width:1.0416666666666667;" width="157.2917" x="569.1458" y="392.6042"/><rect fill="url(#g1d3rq85zozwsi0)" height="10.4167" style="stroke:#33B2E2;stroke-width:1.0416666666666667;" width="15.625" x="705.6042" y="397.8125"/><rect fill="url(#g1d3rq85zozwsi0)" height="2.0833" style="stroke:#33B2E2;stroke-width:1.0416666666666667;" width="4.1667" x="703.5208" y="399.8958"/><rect fill="url(#g1d3rq85zozwsi0)" height="2.0833" style="stroke:#33B2E2;stroke-width:1.0416666666666667;" width="4.1667" x="703.5208" y="404.0625"/><text fill="#FFFFFF" font-family="Verdana" font-size="12.5" lengthAdjust="spacing" textLength="98.9583" x="593.1042" y="433.3736">VM: Plex Server</text></g><!--link Proxmox Server to VM: Linux Server--><g id="link_Proxmox Server_VM: Linux Server"><path d="M366.5417,80.6667 C366.5417,99.5833 366.5417,117.4792 366.5417,136.3125 " fill="none" id="Proxmox Server-to-VM: Linux Server" style="stroke:#009FDB;stroke-width:3.125;"/><polygon fill="#009FDB" points="366.5417,142.5625,370.7083,133.1875,366.5417,137.3542,362.375,133.1875,366.5417,142.5625" style="stroke:#009FDB;stroke-width:3.125;"/></g><!--link VM: Linux Server to Wazuh--><g id="link_VM: Linux Server_Wazuh"><path d="M366.5417,205.6354 C366.5417,224.5521 366.5417,242.4375 366.5417,261.2813 " fill="none" id="VM: Linux Server-to-Wazuh" style="stroke:#009FDB;stroke-width:3.125;"/><polygon fill="#009FDB" points="366.5417,267.5313,370.7083,258.1563,366.5417,262.3229,362.375,258.1563,366.5417,267.5313" style="stroke:#009FDB;stroke-width:3.125;"/></g><!--link Wazuh to Endpoint 1--><g id="link_Wazuh_Endpoint 1"><path d="M316.2396,322.3125 C264.2917,345.4271 189.7722,378.6039 140.2618,400.6456 " fill="none" id="Wazuh-to-Endpoint 1" style="stroke:#009FDB;stroke-width:3.125;"/><polygon fill="#009FDB" points="134.5521,403.1875,144.8113,403.1811,139.3102,401.0692,141.4221,395.5681,134.5521,403.1875" style="stroke:#009FDB;stroke-width:3.125;"/></g><!--link Wazuh to Endpoint 2--><g id="link_Wazuh_Endpoint 2"><path d="M343.6458,330.6042 C327.8438,351.7917 310.8838,374.5327 296.3318,394.0327 " fill="none" id="Wazuh-to-Endpoint 2" style="stroke:#009FDB;stroke-width:3.125;"/><polygon fill="#009FDB" points="292.5938,399.0417,301.5401,394.0202,295.7088,394.8675,294.8614,389.0362,292.5938,399.0417" style="stroke:#009FDB;stroke-width:3.125;"/></g><!--link Wazuh to Endpoint 3--><g id="link_Wazuh_Endpoint 3"><path d="M389.6979,330.6042 C405.6771,351.7917 422.8614,374.5519 437.5697,394.0519 " fill="none" id="Wazuh-to-Endpoint 3" style="stroke:#009FDB;stroke-width:3.125;"/><polygon fill="#009FDB" points="441.3333,399.0417,439.0144,389.048,438.197,394.8835,432.3614,394.0661,441.3333,399.0417" style="stroke:#009FDB;stroke-width:3.125;"/></g><!--link Wazuh to VM: Plex Server--><g id="link_Wazuh_VM: Plex Server"><path d="M416.8229,321.8854 C461.6146,341.4583 521.8979,367.7891 571.8875,389.6329 " fill="none" id="Wazuh-to-VM: Plex Server" style="stroke:#009FDB;stroke-width:3.125;"/><polygon fill="#009FDB" points="577.6146,392.1354,570.6923,384.5635,572.842,390.05,567.3556,392.1997,577.6146,392.1354" style="stroke:#009FDB;stroke-width:3.125;"/></g><!--SRC=[Kop9ICrDLKZAAKrDBqgivEAA3YZAhyZDhr08JYqgIosALT3LjLE83lErKl39p2k52tDX2a5KXYTMbMO0fI6qWcvAVdaUK5p3DI-b83yphqJ1K1EFf14-IMCaIPYZ0d9I4Mu20000]--></g></svg>